<svg t="1713616821385" class="icon" viewBox="0 0 1024 1024" version="1.1" xmlns="http://www.w3.org/2000/svg" p-id="2332" width="32" height="32"><path d="M585.2 255.1h-354l118.5-118.5c16.4-16.4 16.4-42.9 0-59.2-16.4-16.4-42.9-16.4-59.2 0L104.7 263.1c-9 9-12.8 21-12 32.7-0.9 11.7 3 23.7 12 32.7l185.7 185.7c8.2 8.2 18.9 12.3 29.6 12.3s21.4-4.1 29.6-12.3c16.4-16.4 16.4-42.9 0-59.2L233.5 338.9h346.4c146.3 0 269.6 115.2 272.9 261.5 3.4 150.3-117.9 273.7-267.5 273.7h-53.6c-0.6 0-1.3-0.1-1.9-0.1H170.3c-0.7 0-1.3 0.1-1.9 0.1-20 0.9-36.2 15.7-39.4 35v13.8c3.2 19.2 19.4 34 39.2 35H579c192.6 0 354-152.4 357.5-344.9 3.6-196.7-155.4-357.9-351.3-357.9z" fill="#fff" p-id="2333"></path></svg>