<svg t="1713331598477" class="icon" viewBox="0 0 1024 1024" version="1.1" xmlns="http://www.w3.org/2000/svg" p-id="13222" width="32" height="32"><path d="M257.39 384.07h508.89L761.47 346s-6-24.78-31.13-28.38c0 0-14.68 0.48-12.75-17.93 0 0-0.39-114.95-128.81-155.9a5.61 5.61 0 0 0-7.16 2.8s-16.21 48.65-31.5 122.52l-1.28 3.89-0.77-148.24s0.47-20-20.74-21.11H496s-20-0.73-20.06 24.37v143.82l-2.23-4.33S453 165.68 443.36 150.12c0 0-1.29-7.25-8.44-5.92 0 0-123.29 33-129.34 157.82 0 0 2.05 13.17-9.11 14.42 0 0-41.57-0.6-39.08 67.63zM884.22 889.67v33.15H567.29l-17.57-83.4s-6.18-13.73 7.46-23.55c0 0 18.78-17.65 3-36.56 0 0-17-22.66-34-20.92h-25.54c-17-1.74-34 20.92-34 20.92-15.74 18.91 3 36.56 3 36.56 13.64 9.82 7.46 23.55 7.46 23.55l-17.57 83.4H142.65v-33.15c1-61.94 51.27-80.68 51.27-80.68 49.22-26.8 155.73-59.49 155.73-59.49 62-24.06 65.73-66.3 65.73-66.3 7.59-56.72-30.87-73.11-30.87-73.11-15.25-9.49-22.51-27.15-22.51-27.15l-12-33.05c-3.69-10.18-10.85-12.64-10.85-12.64-12.67-6-21-25.45-21-25.45-18.55-46.55 4.06-66.65 4.06-66.65 4.86-3.07 4.72-10.65 4.72-10.65v-25.6H699.9v25.6s-0.14 7.58 4.72 10.65c0 0 22.61 20.1 4.06 66.65 0 0-8.29 19.48-21 25.45 0 0-7.16 2.46-10.85 12.64l-12 33.05s-7.22 17.66-22.47 27.15c0 0-38.46 16.39-30.87 73.11 0 0 3.74 42.24 65.73 66.3 0 0 106.51 32.69 155.73 59.49 0.05 0.01 50.31 18.74 51.27 80.68z" p-id="13223" fill="#ffffff"></path></svg>