<?xml version="1.0" standalone="no"?><!DOCTYPE svg PUBLIC "-//W3C//DTD SVG 1.1//EN" "http://www.w3.org/Graphics/SVG/1.1/DTD/svg11.dtd">
<svg t="1713261048945" class="icon" viewBox="0 0 1024 1024" version="1.1" xmlns="http://www.w3.org/2000/svg" p-id="10361" width="256" height="256" xmlns:xlink="http://www.w3.org/1999/xlink">
<path d="M237.5 457.7s21.3-45.7 81.6-86.1c60.3-40.5 111.2-43.3 111.2-43.3s-10.9 30.4-80.5 82.2c-69.5 51.8-112.3 47.2-112.3 47.2zM477.2 328.3s49.9 7.1 106.1 53c56.3 45.9 73.7 93.8 73.7 93.8s-32.3-1.6-102-53.1-77.8-93.7-77.8-93.7zM448.2 60.7s27.1 42.5 28.9 115.1c1.8 72.6-23.1 117-23.1 117s-19.8-25.5-26.2-112c-6.4-86.5 20.4-120.1 20.4-120.1z" fill="#1F94FF" p-id="10362"></path>
<path d="M454.6 316.9m-17.8 0a17.8 17.8 0 1 0 35.6 0 17.8 17.8 0 1 0-35.6 0Z" fill="##1F94FF" p-id="10363"></path>
<path d="M443.1 349.5s-8.6 463.8-66.8 479.3 78.8 0 78.8 0V344.5c0.1 0 4.1-12.9-12 5z" fill="#1F94FF" p-id="10364"></path><path d="M466 349.5s8.6 463.8 66.8 479.3-78.8 0-78.8 0V344.5c-0.1 0-4.1-12.9 12 5z" fill="#1F94FF" p-id="10365"></path>
<path d="M495.8 551.2s23.6-8.7 59.1-1.8c35.5 6.9 54.5 23.8 54.5 23.8s-14.6 6.9-57.3 0.8c-42.8-6.2-56.3-22.8-56.3-22.8zM624.9 588.6s19 16.5 30.1 50.9c11.1 34.4 5.5 59.2 5.5 59.2s-13.1-9.4-28.3-49.9c-15.3-40.3-7.3-60.2-7.3-60.2zM709.9 484.9s-5.3 24.5-30.2 50.8c-24.9 26.3-49.3 33.2-49.3 33.2s2-16 30.1-48.8 49.4-35.2 49.4-35.2zM631.1 577.1c0 4.9-4 8.9-8.9 8.9s-8.9-4-8.9-8.9 4-8.9 8.9-8.9c5 0 8.9 4 8.9 8.9z" fill="#1F94FF" p-id="10366"></path>
<path d="M616.6 593.3s-4.3 231.2-33.3 239c-29 7.7 39.3 0 39.3 0V590.8s2-6.4-6 2.5z" fill="#1F94FF" p-id="10367"></path><path d="M628 593.3s4.3 231.2 33.3 239c29 7.7-39.3 0-39.3 0V590.8c-0.1 0-2.1-6.4 6 2.5z" fill="#1F94FF" p-id="10368"></path>
<path d="M113.3 905.2s382.1-133.3 776.5 11.6c136.8 50.3-120-93.1-305.3-106.4-67.4-4.8-173.7-2.9-260.4 16.3-151.6 33.8-270.4 94.4-210.8 78.5z" fill="#1F94FF" p-id="10369"></path></svg>